<?xml version="1.0" encoding="utf-8"?>
<!-- Generator: Adobe Illustrator 25.2.3, SVG Export Plug-In . SVG Version: 6.00 Build 0)  -->
<svg version="1.1" id="Layer_1" focusable="false" xmlns="http://www.w3.org/2000/svg" xmlns:xlink="http://www.w3.org/1999/xlink"
	 x="0px" y="0px" viewBox="0 0 512 512" style="enable-background:new 0 0 512 512;" xml:space="preserve">
<style type="text/css">
	.st0{display:none;fill:#FFFFFF;}
	.st1{fill:#FFFFFF;}
</style>
<path class="st0" d="M462.3,62.6C407.5,15.9,326,24.3,275.7,76.2L256,96.5l-19.7-20.3C186.1,24.3,104.5,15.9,49.7,62.6
	c-62.8,53.6-66.1,149.8-9.9,207.9l193.5,199.8c12.5,12.9,32.8,12.9,45.3,0l193.5-199.8C528.4,212.4,525.1,116.2,462.3,62.6
	L462.3,62.6z"/>
<path class="st1" d="M256,32C114.6,32,0,125.1,0,240c0,49.6,21.4,95,57,130.7C44.5,421.1,2.7,466,2.2,466.5
	c-2.2,2.3-2.8,5.7-1.5,8.7S4.8,480,8,480c66.3,0,116-31.8,140.6-51.4c32.7,12.3,69,19.4,107.4,19.4c141.4,0,256-93.1,256-208
	S397.4,32,256,32z"/>
</svg>
