<?xml version="1.0" encoding="utf-8"?>
<!-- Generator: Adobe Illustrator 25.2.3, SVG Export Plug-In . SVG Version: 6.00 Build 0)  -->
<svg version="1.1" id="Layer_1" xmlns="http://www.w3.org/2000/svg" xmlns:xlink="http://www.w3.org/1999/xlink" x="0px" y="0px"
	 viewBox="0 0 12 12" style="enable-background:new 0 0 12 12;" xml:space="preserve">
<style type="text/css">
	.st0{fill-rule:evenodd;clip-rule:evenodd;fill:#262626;}
</style>
<path class="st0" d="M11.2,0.4H0.8c-0.2,0-0.4,0.2-0.4,0.4v10.5c0,0.2,0.2,0.4,0.4,0.4h10.5c0.2,0,0.4-0.2,0.4-0.4V0.8
	C11.6,0.6,11.4,0.4,11.2,0.4z M1.1,1.1h2.8v2.8H1.1V1.1z M1.1,4.6h2.8v2.8H1.1V4.6z M3.9,10.9H1.1V8.1h2.8V10.9z M7.4,10.9H4.6V8.1
	h2.8V10.9z M7.4,7.4H4.6V4.6h2.8V7.4z M7.4,3.9H4.6V1.1h2.8V3.9z M10.9,10.9H8.1V8.1h2.8V10.9z M10.9,7.4H8.1V4.6h2.8V7.4z
	 M10.9,3.9H8.1V1.1h2.8V3.9z"/>
</svg>
