<?xml version="1.0" encoding="utf-8"?>
<!-- Generator: Adobe Illustrator 25.2.3, SVG Export Plug-In . SVG Version: 6.00 Build 0)  -->
<svg version="1.1" id="Layer_1" xmlns="http://www.w3.org/2000/svg" xmlns:xlink="http://www.w3.org/1999/xlink" x="0px" y="0px"
	 viewBox="0 0 12 12" style="enable-background:new 0 0 12 12;" xml:space="preserve">
<style type="text/css">
	.st0{fill:#8E8E8E;}
</style>
<path class="st0" d="M10.4,1.4H7.6c-0.1,0-0.2,0-0.3-0.1l-1-1c-0.2-0.2-0.4-0.2-0.5,0l-1,1C4.6,1.3,4.5,1.4,4.4,1.4H1.6
	C0.8,1.4,0.1,2,0.1,2.9v7.5c0,0.8,0.7,1.5,1.5,1.5h8.8c0.8,0,1.5-0.7,1.5-1.5V2.9C11.9,2,11.2,1.4,10.4,1.4z M3,11.1
	c-0.2,0-0.3-0.1-0.2-0.3C3,10,3.7,9.4,4.5,9.4h3c0.9,0,1.6,0.6,1.7,1.4c0,0.1-0.1,0.3-0.2,0.3H3z M11.1,10.4c0,0.4-0.3,0.8-0.8,0.8
	h-0.1c-0.1,0-0.2-0.1-0.2-0.2C9.8,9.6,8.8,8.7,7.5,8.7h-3c-1.3,0-2.3,1-2.5,2.2c0,0.1-0.1,0.2-0.2,0.2H1.6c-0.4,0-0.8-0.3-0.8-0.8
	V2.9c0-0.4,0.3-0.8,0.8-0.8h2.8c0.3,0,0.7-0.1,0.9-0.4L6,1l0.7,0.7C6.9,2,7.3,2.1,7.6,2.1h2.8c0.4,0,0.8,0.3,0.8,0.8V10.4z M6,3.1
	c-1.3,0-2.4,1.1-2.4,2.4S4.7,7.9,6,7.9s2.4-1.1,2.4-2.4S7.3,3.1,6,3.1z M6,7.2c-0.9,0-1.7-0.7-1.7-1.7c0-0.9,0.7-1.7,1.7-1.7
	s1.7,0.7,1.7,1.7C7.7,6.4,6.9,7.2,6,7.2z"/>
</svg>
